<svg xmlns="http://www.w3.org/2000/svg" viewBox="0 0 133.37842 34.54657125">
  <g transform="translate(-733.5474,-406.45168)">
    <g transform="translate(732.5578,351.90101)">
      <path d="m 278.47862,208.22181 -1.45128,4.90514 h -7.40543 a 2.8777734,2.8777734 135 0 0 -2.87777,2.87777 v 10.04524 a 2.8777734,2.8777734 45 0 0 2.87777,2.87777 l 6.36051,0 v 8.42774 h -1.21875 c -5.02132,-1.31615 -13.85173,-3.55732 -24.14844,-5.76367 -15.48486,-3.31807 -33.1816,-6.45191 -43.73828,-5.22657 -10.57093,1.22701 -19.79241,7.78532 -26.45703,13.89258 -2.41566,2.21365 -4.49185,4.38495 -6.17383,6.26367 h -13.98632 c 0,0 -8.14386,-0.69337 -21.375,0.57032 6.61608,7.8412 10.24547,17.76981 10.24609,28.02929 -4.7e-4,0.39524 -0.006,0.79046 -0.0176,1.18555 9.7857,-0.34514 17.08008,-0.42383 17.08008,-0.42383 v 14.62891 l -4.91466,3.03248 a 6.4147121,6.4147121 119.16216 0 0 -3.04628,5.45913 v 1.52011 h 213.8711 27.96875 c -5.32888,-7.39821 -8.19654,-16.28476 -8.19727,-25.40235 6.1e-4,-17.67244 10.70039,-33.58544 27.06641,-40.2539 l -35.94518,-13.92932 a 115.60857,115.60857 10.591066 0 0 -41.77329,-7.81092 l -50.37919,0 1.4214,-4.90188 a 1.6028858,1.6028858 53.085284 0 0 -1.53947,-2.04929 l -9.50798,0 a 2.8564312,2.8564312 143.24094 0 0 -2.73906,2.04603 z m 174.39638,14.23327 -5.29492,10.95703 c 16.18018,4.74675 28.15546,18.42267 30.72461,35.08789 h 8.97265 l 20.57032,-46.04492 z m -241.70117,8.66406 c 9.5702,-0.0871 24.99293,2.49427 38.40039,5.36719 2.31828,0.49675 4.54913,0.99606 6.7207,1.49219 l -21.70703,8.54296 h -48.47266 c 0.21019,-0.84108 0.73267,-1.70688 1.68555,-2.58007 6.26358,-5.73977 10.82389,-11.59049 19.65234,-12.61524 1.10534,-0.1283 2.35354,-0.19459 3.72071,-0.20703 z M 62.648438,268.85352 c -8.719333,3.61698 -16.187294,6.95037 -22.09375,9.68945 H 18.681641 l -11.0694766,6.00935 a 7.4047891,7.4047891 120.75176 0 0 -3.87193,6.50768 l 0,9.22516 H 57.529297 l 0.128906,-5.91797 c 0.991036,-0.35213 6.21521,-2.78211 7.583985,-3.25391 -2.014366,-5.09115 -3.048781,-10.51702 -3.048829,-15.99219 2.85e-4,-2.09743 0.152375,-4.1921 0.455079,-6.26757 z" transform="scale(0.26458333)" fill="#e10600"/>
      <circle r="9.3954048" cy="72.792526" cx="27.956244" fill="#e10600"/>
      <circle cx="115.18495" cy="72.792526" r="9.3954048" fill="#e10600"/>
    </g>
  </g>
  <!-- Attribution lines removed for icon usage -->
</svg>


